<svg width="1754" height="749" viewBox="0 0 1754 749" fill="none" xmlns="http://www.w3.org/2000/svg">
<path d="M1030.8 225.679C1033.74 225.008 1036.68 224.467 1039.63 224L1011.88 252.359C1000.6 256.945 989.85 262.726 979.33 269.301C968.874 275.836 958.871 282.53 949.811 290.941C936.336 303.449 926.038 318.653 917.056 334.532C907.802 350.893 901.869 369.961 899.001 388.463C896.188 406.614 895.724 425.698 898.947 443.864C902.975 466.576 910.643 487.888 922.751 507.601C926.821 505.71 929.71 501.398 933.083 498.494C939.895 492.629 947.047 487.194 954.73 482.504C957.575 480.768 960.497 479.419 963.586 478.184C964.752 477.718 966.657 477.291 967.206 476.018C968.078 473.995 966.465 470.474 966.188 468.378C965.398 462.384 964.92 456.287 965.07 450.238C965.502 432.621 968.811 414.758 975.11 398.268C979.858 385.844 987.109 374.563 995.7 364.439C998.615 361.004 1001.71 357.806 1004.91 354.634C1006.8 352.759 1009.15 351.155 1010.32 348.75C1004.16 348.754 997.987 350.524 992.121 352.321C979.485 356.192 967.176 361.936 956.698 370.041C951.919 373.738 948.419 378.584 943.899 382.475C942.513 383.668 940.029 385.268 938.114 384.368C935.219 383.007 935.666 377.34 935.334 374.735C934.059 364.716 937.874 352.042 942.721 343.357C950.503 329.415 964.891 317.51 981.79 317.926C989.087 318.105 995.476 320.628 1002.45 322.275C1000.68 319.774 998.312 317.951 996.057 315.902C990.533 310.879 984.49 306.291 977.854 302.821C975.184 301.425 972.309 300.577 969.49 299.551C968.073 299.036 966.288 298.327 965.754 296.759C964.767 293.856 970.02 291.168 971.95 289.943C979.409 285.211 988.556 281.318 997.533 281.099C1011.56 280.756 1025.27 288.502 1031.05 301.684C1033.08 306.317 1033.68 311.217 1034.08 316.162L1034.15 317.09L1034.26 318.482C1034.27 318.637 1034.28 318.792 1034.29 318.947L1034.36 319.876L1034.43 320.804C1038.84 317.23 1041.94 311.971 1046.24 308.142C1056.3 299.189 1070.07 295.214 1083.14 299.245C1094.95 302.887 1105.21 310.995 1111.25 321.785C1112.83 324.608 1117.24 331.508 1114.05 334.319C1111.56 336.521 1108.4 334.805 1105.77 333.892C1103.78 333.201 1101.72 332.763 1099.66 332.357L1098.53 332.137C1098.16 332.065 1097.78 331.991 1097.41 331.917C1090.26 330.49 1081.94 330.638 1074.77 331.892C1070.14 332.702 1065.61 334.343 1061 335.022V336.003C1073.62 336.107 1085.83 343.271 1092.06 354.143C1094.64 358.648 1095.92 363.803 1096.91 368.852C1098.14 375.092 1097.28 381.891 1095.56 387.973C1094.99 390.012 1093.95 393.469 1091.49 393.938C1089.76 394.27 1088.29 392.554 1087.3 391.397C1084.71 388.364 1082.24 385.481 1079.2 382.862C1071.51 376.237 1063.37 370.125 1055.1 364.233C1050.7 361.104 1045.89 357.036 1040.83 355.124C1042.25 358.535 1043.65 361.707 1044.13 365.42C1045.55 376.341 1040.96 386.621 1034.06 394.836C1031.96 397.344 1029.7 399.869 1027.05 401.817C1025.95 402.625 1024.57 403.68 1023.12 403.452C1018.55 402.734 1018.01 395.891 1017.31 392.385C1014.94 380.51 1015.89 368.716 1019.18 357.085C1016.26 358.561 1014.14 361.79 1012.3 364.439C1008.26 370.268 1004.76 376.433 1002.24 383.07C992.232 409.505 992.328 440.468 1005.3 465.918C1006.75 468.76 1008.95 468.378 1011.8 468.378C1012.23 468.378 1012.66 468.376 1013.09 468.372L1014.39 468.359C1016.98 468.332 1019.57 468.32 1022.13 468.661C1023.46 468.837 1025.31 468.68 1026.36 469.654C1027.62 470.822 1026.95 472.825 1026.66 474.262C1025.85 478.279 1025.58 481.93 1025.58 486.028C1030.96 485.198 1032.45 476.607 1034.36 472.3C1036.53 467.422 1038.73 462.538 1040.73 457.592C1041.71 455.161 1043.03 452.443 1042.68 449.748C1042.3 446.718 1040.1 443.506 1038.56 440.923C1035.66 436.033 1032.36 431.001 1030.23 425.724C1028.52 421.505 1030.11 416.233 1034.92 414.726C1037.58 413.895 1040.41 415.525 1042.14 417.435C1045.77 421.439 1048.11 427.398 1050.74 432.098L1071.26 468.868C1073 471.982 1074.75 475.093 1076.54 478.184C1077.23 479.39 1077.94 481.252 1079.36 481.766C1080.63 482.224 1082.37 481.573 1083.63 481.322C1086.91 480.669 1090.18 479.964 1093.47 479.372C1097.41 478.664 1103.42 478.797 1106.26 475.732C1102.11 474.423 1097.3 474.5 1092.98 474.795C1090.38 474.973 1087.5 475.898 1085.11 474.388C1081.56 472.142 1079.2 466.952 1077.03 463.475C1071.67 454.901 1066.62 446.199 1061.49 437.491L1060.66 436.104L1059.01 433.334C1058.19 431.948 1057.37 430.558 1056.58 429.156C1055.97 428.071 1055.06 426.642 1055.94 425.447C1056.86 424.191 1058.87 424.117 1060.68 424.115L1061.04 424.115C1061.76 424.116 1062.43 424.116 1062.97 424.045C1070.29 423.086 1077.72 422.292 1085.11 422.292C1084.53 420.302 1082.89 418.052 1083.41 415.92C1084.59 411.152 1091.48 409.66 1094.69 413.082C1096.84 415.379 1098.1 418.54 1099.5 421.311C1101.34 424.97 1103.45 428.507 1105.43 432.098C1108.89 438.383 1112.68 444.497 1116.24 450.728C1116.53 451.242 1116.84 451.753 1117.14 452.264L1117.6 453.031C1119.14 455.586 1120.68 458.158 1121.51 461.024C1109.14 460.461 1099.85 446.168 1094.45 436.51C1094.02 438.056 1094.72 439.437 1095.28 440.923C1096.44 444.009 1097.83 446.948 1099.58 449.748C1102.08 453.745 1104.94 457.862 1108.72 460.765C1115.43 465.915 1124.27 465.943 1132.34 465.393C1137.51 465.039 1143.98 462.696 1149.06 464.286C1154.14 465.873 1156.19 471.449 1153.17 475.732C1150.91 478.94 1147.9 480.152 1144.14 480.635C1146.8 486.297 1150.27 491.552 1152.79 497.305C1153.84 499.701 1154.93 503.374 1157.45 504.638C1159.12 505.48 1161.52 504.696 1163.33 504.659C1161.52 499.877 1158.11 495.819 1156.44 490.931C1161.54 491.163 1166.46 493.807 1171.2 495.495C1180.53 498.814 1189.74 502.443 1198.94 506.105L1203.18 507.797C1206.97 509.304 1210.77 510.797 1214.5 512.436C1215.86 513.035 1216.87 513.837 1218.66 514.431L1239 524.808C1223.88 547.227 1204.14 566.372 1181.47 581.386C1156.52 597.91 1127.34 608.025 1097.65 611.606C1059.86 616.165 1019 609.503 985.032 592.172C921.256 559.635 877.899 494.151 877.041 422.388C876.876 408.552 877.093 394.633 879.845 380.932C884.329 358.618 892.146 337.048 903.887 317.469C916.587 296.288 932.991 277.597 952.635 262.528C975.672 244.856 1002.45 232.145 1030.8 225.679ZM993.105 547.722C984.323 548.659 975.06 550.249 967.522 555.158C969.219 555.563 971.164 555.16 972.934 555.158C977.186 555.151 981.478 554.991 985.725 555.177C996.358 555.641 1007.44 557.333 1017.7 560.135C1030.85 563.722 1042.43 570.781 1055.1 575.541C1068.46 580.562 1081.76 582.123 1095.93 582.123C1103.07 582.123 1110.16 582.102 1117.09 580.162C1113.47 578.247 1108.3 578.606 1104.29 577.808C1095.61 576.077 1087.07 573.964 1078.71 570.997C1072.56 568.814 1066.64 566.12 1060.74 563.368L1056.95 561.595C1051.48 559.037 1045.99 556.512 1040.34 554.385C1025.46 548.793 1008.97 546.029 993.105 547.722ZM1006.39 510.542C988.985 510.542 971.383 513.593 955.714 521.45C951.918 523.354 948.31 525.622 944.891 528.135C943.849 528.902 942.001 529.886 941.616 531.218C941.226 532.569 942.622 533.701 943.415 534.566C947.331 532.489 951.052 530.291 955.222 528.714C982.195 518.519 1014.89 520.656 1041.81 530.004C1055.24 534.666 1067.6 541.638 1080.68 547.105C1095.3 553.22 1110.24 557.185 1125.94 559.218C1144.47 561.615 1165.59 559.672 1182.52 551.355C1188.47 548.432 1196.73 543.979 1199.25 537.507C1196.14 537.778 1193.34 539.102 1190.39 540.016C1185.7 541.468 1180.95 542.7 1176.12 543.661C1159.78 546.919 1142.4 547.592 1125.94 544.635C1110.43 541.848 1096.02 536.251 1081.67 530.363L1079.84 529.61C1078.62 529.107 1077.4 528.603 1076.18 528.099L1074.35 527.343C1067.02 524.324 1059.66 521.34 1052.14 518.727C1037.53 513.652 1021.87 510.542 1006.39 510.542ZM1117.58 488.298C1107.11 491.012 1096.33 493.472 1085.6 494.853C1087.01 499.635 1090.46 504.286 1092.98 508.581C1093.96 510.242 1095 512.466 1096.93 513.186C1099.11 514 1101.75 512.679 1103.8 512.013C1102.85 509.421 1101.25 507.089 1099.94 504.659C1099.4 503.657 1098.56 502.47 1099.01 501.28C1099.85 499.032 1103.34 499.164 1105.28 498.774C1110.38 497.744 1115.43 496.459 1120.53 495.442C1122.41 495.067 1125.03 494.051 1126.92 494.678C1128.33 495.148 1129.19 496.308 1129.99 497.518L1130.35 498.063C1130.84 498.789 1131.33 499.499 1131.95 500.053C1134.01 501.907 1137.1 502.192 1139.72 502.698C1138.12 499.119 1135.46 495.987 1133.76 492.402C1132.77 490.317 1131.95 487.249 1129.79 486.044C1126.8 484.384 1120.63 487.505 1117.58 488.298ZM1051.65 464.456C1051.16 470.672 1049.24 475.729 1046.24 481.125C1049.68 481.559 1053.19 481.713 1056.57 482.547C1059.1 483.171 1061.44 484.363 1063.95 485.048C1062.61 481.391 1060.12 478.129 1058.19 474.752C1056.24 471.343 1054.49 467.201 1051.65 464.456Z" fill="#CC9C42"/>
<path d="M125.12 533.4C122.667 544.133 118.833 552.413 113.62 558.24C108.713 564.067 100.587 566.98 89.24 566.98C79.7333 566.98 72.68 565.293 68.08 561.92C63.7867 558.853 61.64 553.487 61.64 545.82C61.64 542.447 62.1 539.227 63.02 536.16L119.14 313.52C118.833 313.52 108.867 314.593 89.24 316.74C65.6267 318.58 50.9067 320.113 45.08 321.34C38.9467 319.193 34.1933 315.973 30.82 311.68C27.7533 307.08 26.22 301.713 26.22 295.58C26.22 290.673 27.9067 286.073 31.28 281.78C34.96 277.18 39.2533 273.807 44.16 271.66C59.4933 268.593 80.96 265.987 108.56 263.84C136.16 261.693 171.58 259.393 214.82 256.94C236.9 256.02 251.773 255.1 259.44 254.18C264.347 256.327 268.487 259.7 271.86 264.3C275.54 268.593 277.38 273.193 277.38 278.1C277.38 283.62 274.62 288.987 269.1 294.2C263.58 299.413 257.293 303.093 250.24 305.24L169.74 309.38C173.113 310.607 174.8 314.747 174.8 321.8C174.8 325.48 174.493 328.24 173.88 330.08C168.667 353.387 161.46 383.593 152.26 420.7C143.367 457.807 137.387 482.953 134.32 496.14C132.48 503.807 130.793 510.707 129.26 516.84C127.727 522.973 126.347 528.493 125.12 533.4ZM401.372 458.88C361.198 465.627 329.152 471.76 305.232 477.28C297.872 488.933 293.118 496.753 290.972 500.74C284.532 512.087 278.705 521.593 273.492 529.26C268.585 536.62 263.218 543.213 257.392 549.04C250.952 555.48 245.585 560.08 241.292 562.84C237.305 565.6 232.552 566.98 227.032 566.98C217.832 566.98 209.705 564.987 202.652 561C195.905 556.707 192.532 552.413 192.532 548.12C193.145 547.507 196.518 540.76 202.652 527.88C208.785 514.693 220.132 498.287 236.692 478.66C236.692 476.207 235.925 473.14 234.392 469.46C232.858 465.78 232.092 463.633 232.092 463.02C232.092 454.127 246.045 443.393 273.952 430.82C289.592 407.513 305.998 384.513 323.172 361.82C340.652 339.127 361.965 312.293 387.112 281.32C393.245 273.653 401.065 267.367 410.572 262.46C420.078 257.553 429.585 255.1 439.092 255.1C448.905 255.1 456.265 256.02 461.172 257.86C466.078 259.7 469.145 262.153 470.372 265.22C471.905 268.287 472.672 272.58 472.672 278.1C471.445 287.3 470.678 294.2 470.372 298.8C465.772 335.907 462.245 367.8 459.792 394.48C457.645 420.853 456.572 447.227 456.572 473.6C456.572 497.827 457.645 520.06 459.792 540.3C458.872 547.66 455.652 554.407 450.132 560.54C444.612 566.367 438.172 569.28 430.812 569.28C416.705 569.28 407.352 565.753 402.752 558.7C398.458 551.647 396.312 539.687 396.312 522.82C396.312 510.553 397.998 489.24 401.372 458.88ZM341.572 424.38C347.092 423.153 355.525 421.773 366.872 420.24L403.672 414.72C406.432 372.093 409.652 341.427 413.332 322.72C401.372 336.827 377.452 370.713 341.572 424.38ZM777.767 252.34C786.047 252.34 794.94 254.027 804.447 257.4C814.26 260.773 819.627 263.38 820.547 265.22C814.107 290.06 805.673 325.327 795.247 371.02C784.82 416.407 777.767 446.92 774.087 462.56C767.34 493.84 761.053 521.593 755.227 545.82C750.933 562.687 744.187 571.12 734.987 571.12C710.76 571.12 696.96 566.213 693.587 556.4L692.667 557.32L613.087 355.38L581.347 485.56L566.627 544.44C564.48 553.333 561.107 559.313 556.507 562.38C552.213 565.447 543.933 566.98 531.667 566.98C522.16 566.98 515.107 565.293 510.507 561.92C506.213 558.853 504.067 553.487 504.067 545.82C504.067 542.447 504.527 539.227 505.447 536.16L568.467 287.3C571.84 273.807 575.367 264.913 579.047 260.62C583.033 256.02 590.087 253.72 600.207 253.72C608.487 253.72 615.847 254.64 622.287 256.48C628.727 258.32 632.1 261.08 632.407 264.76V265.68L710.607 472.68L757.527 267.06C757.527 257.247 764.273 252.34 777.767 252.34Z" fill="#3F3112"/>
<path d="M1554.28 253.72C1565.63 255.867 1572.99 257.707 1576.36 259.24C1580.04 260.467 1582.49 262.46 1583.72 265.22C1577.28 290.06 1568.85 325.327 1558.42 371.02C1547.99 416.407 1540.94 446.92 1537.26 462.56C1530.51 493.84 1524.23 521.593 1518.4 545.82C1514.11 562.687 1507.36 571.12 1498.16 571.12C1473.93 571.12 1460.13 566.213 1456.76 556.4L1455.84 557.32L1380.86 356.76L1352.34 472.68C1346.82 493.84 1340.84 517.76 1334.4 544.44C1332.25 553.333 1328.88 559.313 1324.28 562.38C1319.99 565.447 1311.71 566.98 1299.44 566.98C1289.93 566.98 1282.88 565.293 1278.28 561.92C1273.99 558.853 1271.84 553.487 1271.84 545.82C1271.84 542.447 1272.3 539.227 1273.22 536.16L1336.24 287.3C1339.61 273.807 1343.14 264.913 1346.82 260.62C1350.81 256.02 1357.86 253.72 1367.98 253.72C1376.26 253.72 1383.62 254.64 1390.06 256.48C1396.5 258.32 1399.87 261.08 1400.18 264.76V266.14L1474.24 471.3C1494.17 375.007 1506.9 318.427 1512.42 301.56C1516.71 288.68 1522.54 277.947 1529.9 269.36C1537.26 260.773 1545.39 255.56 1554.28 253.72Z" fill="#3F3112"/>
</svg>
