<svg width="1754" height="653" viewBox="0 0 1754 653" fill="none" xmlns="http://www.w3.org/2000/svg">
<path d="M1030.8 196.753C1033.74 196.169 1036.68 195.697 1039.63 195.29L1011.88 220.014C1000.6 224.012 989.85 229.052 979.33 234.784C968.874 240.482 958.871 246.318 949.811 253.651C936.336 264.556 926.038 277.811 917.056 291.655C907.802 305.919 901.869 322.543 899.001 338.673C896.188 354.498 895.724 371.136 898.947 386.974C902.975 406.775 910.643 425.355 922.751 442.541C926.821 440.892 929.71 437.133 933.083 434.601C939.895 429.489 947.047 424.75 954.73 420.661C957.575 419.147 960.497 417.972 963.586 416.895C964.752 416.488 966.657 416.117 967.206 415.006C968.078 413.243 966.465 410.173 966.188 408.346C965.398 403.12 964.92 397.804 965.07 392.531C965.502 377.171 968.811 361.598 975.11 347.222C979.858 336.39 987.109 326.555 995.7 317.729C998.615 314.734 1001.71 311.946 1004.91 309.18C1006.8 307.546 1009.15 306.147 1010.32 304.051C1004.16 304.054 997.987 305.597 992.121 307.164C979.485 310.539 967.176 315.547 956.698 322.612C951.919 325.836 948.419 330.06 943.899 333.453C942.513 334.493 940.029 335.888 938.114 335.103C935.219 333.917 935.666 328.976 935.334 326.705C934.059 317.97 937.874 306.921 942.721 299.349C950.503 287.194 964.891 276.815 981.79 277.177C989.087 277.334 995.476 279.533 1002.45 280.969C1000.68 278.789 998.312 277.199 996.057 275.412C990.533 271.033 984.49 267.034 977.854 264.008C975.184 262.791 972.309 262.052 969.49 261.158C968.073 260.708 966.288 260.09 965.754 258.723C964.767 256.192 970.02 253.848 971.95 252.781C979.409 248.655 988.556 245.262 997.533 245.071C1011.56 244.772 1025.27 251.525 1031.05 263.017C1033.08 267.056 1033.68 271.328 1034.08 275.639L1034.15 276.448L1034.26 277.662C1034.27 277.797 1034.28 277.932 1034.29 278.067L1034.36 278.877L1034.43 279.687C1038.84 276.571 1041.94 271.985 1046.24 268.648C1056.3 260.842 1070.07 257.376 1083.14 260.89C1094.95 264.065 1105.21 271.134 1111.25 280.542C1112.83 283.003 1117.24 289.018 1114.05 291.469C1111.56 293.389 1108.4 291.893 1105.77 291.097C1103.78 290.495 1101.72 290.112 1099.66 289.759L1098.53 289.567C1098.16 289.504 1097.78 289.44 1097.41 289.375C1090.26 288.131 1081.94 288.26 1074.77 289.353C1070.14 290.06 1065.61 291.49 1061 292.082V292.937C1073.62 293.028 1085.83 299.274 1092.06 308.753C1094.64 312.679 1095.92 317.174 1096.91 321.576C1098.14 327.016 1097.28 332.943 1095.56 338.246C1094.99 340.024 1093.95 343.037 1091.49 343.447C1089.76 343.736 1088.29 342.24 1087.3 341.231C1084.71 338.587 1082.24 336.074 1079.2 333.79C1071.51 328.014 1063.37 322.686 1055.1 317.549C1050.7 314.821 1045.89 311.274 1040.83 309.607C1042.25 312.582 1043.65 315.347 1044.13 318.584C1045.55 328.105 1040.96 337.067 1034.06 344.23C1031.96 346.416 1029.7 348.618 1027.05 350.316C1025.95 351.02 1024.57 351.94 1023.12 351.741C1018.55 351.116 1018.01 345.149 1017.31 342.093C1014.94 331.74 1015.89 321.457 1019.18 311.317C1016.26 312.604 1014.14 315.419 1012.3 317.729C1008.26 322.811 1004.76 328.186 1002.24 333.971C992.232 357.019 992.328 384.013 1005.3 406.201C1006.75 408.678 1008.95 408.346 1011.8 408.346C1012.23 408.346 1012.66 408.344 1013.09 408.34L1014.39 408.329C1016.98 408.305 1019.57 408.295 1022.13 408.592C1023.46 408.746 1025.31 408.609 1026.36 409.458C1027.62 410.477 1026.95 412.222 1026.66 413.475C1025.85 416.978 1025.58 420.161 1025.58 423.734C1030.96 423.01 1032.45 415.52 1034.36 411.765C1036.53 407.512 1038.73 403.254 1040.73 398.942C1041.71 396.823 1043.03 394.453 1042.68 392.103C1042.3 389.462 1040.1 386.662 1038.56 384.409C1035.66 380.146 1032.36 375.76 1030.23 371.159C1028.52 367.481 1030.11 362.884 1034.92 361.57C1037.58 360.845 1040.41 362.267 1042.14 363.932C1045.77 367.423 1048.11 372.618 1050.74 376.715L1071.26 408.773C1073 411.488 1074.75 414.2 1076.54 416.895C1077.23 417.946 1077.94 419.57 1079.36 420.018C1080.63 420.417 1082.37 419.85 1083.63 419.63C1086.91 419.061 1090.18 418.446 1093.47 417.931C1097.41 417.313 1103.42 417.429 1106.26 414.757C1102.11 413.616 1097.3 413.683 1092.98 413.941C1090.38 414.095 1087.5 414.901 1085.11 413.585C1081.56 411.627 1079.2 407.103 1077.03 404.071C1071.67 396.596 1066.62 389.009 1061.49 381.417L1060.66 380.208L1059.01 377.793C1058.19 376.585 1057.37 375.373 1056.58 374.151C1055.97 373.205 1055.06 371.959 1055.94 370.917C1056.86 369.822 1058.87 369.758 1060.68 369.755L1061.04 369.756C1061.76 369.756 1062.43 369.757 1062.97 369.695C1070.29 368.859 1077.72 368.167 1085.11 368.167C1084.53 366.431 1082.89 364.47 1083.41 362.612C1084.59 358.454 1091.48 357.154 1094.69 360.137C1096.84 362.139 1098.1 364.895 1099.5 367.312C1101.34 370.502 1103.45 373.585 1105.43 376.715C1108.89 382.196 1112.68 387.525 1116.24 392.958C1116.53 393.406 1116.84 393.852 1117.14 394.297L1117.6 394.965C1119.14 397.193 1120.68 399.436 1121.51 401.934C1109.14 401.443 1099.85 388.982 1094.45 380.562C1094.02 381.91 1094.72 383.114 1095.28 384.409C1096.44 387.1 1097.83 389.662 1099.58 392.103C1102.08 395.589 1104.94 399.178 1108.72 401.708C1115.43 406.198 1124.27 406.223 1132.34 405.743C1137.51 405.435 1143.98 403.392 1149.06 404.778C1154.14 406.162 1156.19 411.023 1153.17 414.757C1150.91 417.554 1147.9 418.61 1144.14 419.032C1146.8 423.968 1150.27 428.55 1152.79 433.565C1153.84 435.654 1154.93 438.856 1157.45 439.958C1159.12 440.692 1161.52 440.009 1163.33 439.976C1161.52 435.807 1158.11 432.269 1156.44 428.008C1161.54 428.21 1166.46 430.515 1171.2 431.987C1180.53 434.881 1189.74 438.045 1198.94 441.237L1203.18 442.712C1206.97 444.026 1210.77 445.327 1214.5 446.756C1215.86 447.279 1216.87 447.978 1218.66 448.496L1239 457.543C1223.88 477.088 1204.14 493.78 1181.47 506.869C1156.52 521.276 1127.34 530.094 1097.65 533.216C1059.86 537.191 1019 531.383 985.032 516.273C921.256 487.906 877.899 430.815 877.041 368.25C876.876 356.187 877.093 344.053 879.845 332.108C884.329 312.654 892.146 293.849 903.887 276.779C916.587 258.313 932.991 242.018 952.635 228.88C975.672 213.473 1002.45 202.391 1030.8 196.753ZM993.105 477.52C984.323 478.337 975.06 479.723 967.522 484.003C969.219 484.357 971.164 484.005 972.934 484.003C977.186 483.997 981.478 483.858 985.725 484.019C996.358 484.424 1007.44 485.9 1017.7 488.342C1030.85 491.469 1042.43 497.623 1055.1 501.773C1068.46 506.151 1081.76 507.512 1095.93 507.512C1103.07 507.512 1110.16 507.493 1117.09 505.802C1113.47 504.132 1108.3 504.446 1104.29 503.75C1095.61 502.241 1087.07 500.398 1078.71 497.812C1072.56 495.909 1066.64 493.56 1060.74 491.161L1056.95 489.615C1051.48 487.385 1045.99 485.184 1040.34 483.329C1025.46 478.454 1008.97 476.044 993.105 477.52ZM1006.39 445.106C988.985 445.106 971.383 447.765 955.714 454.615C951.918 456.275 948.31 458.252 944.891 460.444C943.849 461.112 942.001 461.97 941.616 463.132C941.226 464.31 942.622 465.297 943.415 466.05C947.331 464.239 951.052 462.323 955.222 460.948C982.195 452.06 1014.89 453.923 1041.81 462.073C1055.24 466.137 1067.6 472.215 1080.68 476.982C1095.3 482.313 1110.24 485.77 1125.94 487.543C1144.47 489.633 1165.59 487.939 1182.52 480.687C1188.47 478.139 1196.73 474.257 1199.25 468.615C1196.14 468.85 1193.34 470.005 1190.39 470.802C1185.7 472.068 1180.95 473.141 1176.12 473.98C1159.78 476.82 1142.4 477.406 1125.94 474.828C1110.43 472.399 1096.02 467.519 1081.67 462.386L1079.84 461.729C1078.62 461.291 1077.4 460.851 1076.18 460.412L1074.35 459.753C1067.02 457.121 1059.66 454.519 1052.14 452.242C1037.53 447.817 1021.87 445.106 1006.39 445.106ZM1117.58 425.712C1107.11 428.079 1096.33 430.223 1085.6 431.428C1087.01 435.596 1090.46 439.651 1092.98 443.396C1093.96 444.844 1095 446.782 1096.93 447.411C1099.11 448.12 1101.75 446.969 1103.8 446.388C1102.85 444.128 1101.25 442.095 1099.94 439.976C1099.4 439.103 1098.56 438.068 1099.01 437.031C1099.85 435.071 1103.34 435.186 1105.28 434.845C1110.38 433.948 1115.43 432.827 1120.53 431.941C1122.41 431.614 1125.03 430.728 1126.92 431.275C1128.33 431.685 1129.19 432.696 1129.99 433.751L1130.35 434.226C1130.84 434.859 1131.33 435.478 1131.95 435.961C1134.01 437.577 1137.1 437.825 1139.72 438.267C1138.12 435.146 1135.46 432.416 1133.76 429.29C1132.77 427.472 1131.95 424.798 1129.79 423.747C1126.8 422.3 1120.63 425.022 1117.58 425.712ZM1051.65 404.926C1051.16 410.345 1049.24 414.754 1046.24 419.459C1049.68 419.837 1053.19 419.972 1056.57 420.698C1059.1 421.243 1061.44 422.282 1063.95 422.879C1062.61 419.691 1060.12 416.847 1058.19 413.903C1056.24 410.931 1054.49 407.319 1051.65 404.926Z" fill="#CC9C42"/>
<path d="M125.12 533.4C122.667 544.133 118.833 552.413 113.62 558.24C108.713 564.067 100.587 566.98 89.24 566.98C79.7333 566.98 72.68 565.293 68.08 561.92C63.7867 558.853 61.64 553.487 61.64 545.82C61.64 542.447 62.1 539.227 63.02 536.16L119.14 313.52C118.833 313.52 108.867 314.593 89.24 316.74C65.6267 318.58 50.9067 320.113 45.08 321.34C38.9467 319.193 34.1933 315.973 30.82 311.68C27.7533 307.08 26.22 301.713 26.22 295.58C26.22 290.673 27.9067 286.073 31.28 281.78C34.96 277.18 39.2533 273.807 44.16 271.66C59.4933 268.593 80.96 265.987 108.56 263.84C136.16 261.693 171.58 259.393 214.82 256.94C236.9 256.02 251.773 255.1 259.44 254.18C264.347 256.327 268.487 259.7 271.86 264.3C275.54 268.593 277.38 273.193 277.38 278.1C277.38 283.62 274.62 288.987 269.1 294.2C263.58 299.413 257.293 303.093 250.24 305.24L169.74 309.38C173.113 310.607 174.8 314.747 174.8 321.8C174.8 325.48 174.493 328.24 173.88 330.08C168.667 353.387 161.46 383.593 152.26 420.7C143.367 457.807 137.387 482.953 134.32 496.14C132.48 503.807 130.793 510.707 129.26 516.84C127.727 522.973 126.347 528.493 125.12 533.4ZM401.372 458.88C361.198 465.627 329.152 471.76 305.232 477.28C297.872 488.933 293.118 496.753 290.972 500.74C284.532 512.087 278.705 521.593 273.492 529.26C268.585 536.62 263.218 543.213 257.392 549.04C250.952 555.48 245.585 560.08 241.292 562.84C237.305 565.6 232.552 566.98 227.032 566.98C217.832 566.98 209.705 564.987 202.652 561C195.905 556.707 192.532 552.413 192.532 548.12C193.145 547.507 196.518 540.76 202.652 527.88C208.785 514.693 220.132 498.287 236.692 478.66C236.692 476.207 235.925 473.14 234.392 469.46C232.858 465.78 232.092 463.633 232.092 463.02C232.092 454.127 246.045 443.393 273.952 430.82C289.592 407.513 305.998 384.513 323.172 361.82C340.652 339.127 361.965 312.293 387.112 281.32C393.245 273.653 401.065 267.367 410.572 262.46C420.078 257.553 429.585 255.1 439.092 255.1C448.905 255.1 456.265 256.02 461.172 257.86C466.078 259.7 469.145 262.153 470.372 265.22C471.905 268.287 472.672 272.58 472.672 278.1C471.445 287.3 470.678 294.2 470.372 298.8C465.772 335.907 462.245 367.8 459.792 394.48C457.645 420.853 456.572 447.227 456.572 473.6C456.572 497.827 457.645 520.06 459.792 540.3C458.872 547.66 455.652 554.407 450.132 560.54C444.612 566.367 438.172 569.28 430.812 569.28C416.705 569.28 407.352 565.753 402.752 558.7C398.458 551.647 396.312 539.687 396.312 522.82C396.312 510.553 397.998 489.24 401.372 458.88ZM341.572 424.38C347.092 423.153 355.525 421.773 366.872 420.24L403.672 414.72C406.432 372.093 409.652 341.427 413.332 322.72C401.372 336.827 377.452 370.713 341.572 424.38ZM777.767 252.34C786.047 252.34 794.94 254.027 804.447 257.4C814.26 260.773 819.627 263.38 820.547 265.22C814.107 290.06 805.673 325.327 795.247 371.02C784.82 416.407 777.767 446.92 774.087 462.56C767.34 493.84 761.053 521.593 755.227 545.82C750.933 562.687 744.187 571.12 734.987 571.12C710.76 571.12 696.96 566.213 693.587 556.4L692.667 557.32L613.087 355.38L581.347 485.56L566.627 544.44C564.48 553.333 561.107 559.313 556.507 562.38C552.213 565.447 543.933 566.98 531.667 566.98C522.16 566.98 515.107 565.293 510.507 561.92C506.213 558.853 504.067 553.487 504.067 545.82C504.067 542.447 504.527 539.227 505.447 536.16L568.467 287.3C571.84 273.807 575.367 264.913 579.047 260.62C583.033 256.02 590.087 253.72 600.207 253.72C608.487 253.72 615.847 254.64 622.287 256.48C628.727 258.32 632.1 261.08 632.407 264.76V265.68L710.607 472.68L757.527 267.06C757.527 257.247 764.273 252.34 777.767 252.34Z" fill="white"/>
<path d="M1554.28 253.72C1565.63 255.867 1572.99 257.707 1576.36 259.24C1580.04 260.467 1582.49 262.46 1583.72 265.22C1577.28 290.06 1568.85 325.327 1558.42 371.02C1547.99 416.407 1540.94 446.92 1537.26 462.56C1530.51 493.84 1524.23 521.593 1518.4 545.82C1514.11 562.687 1507.36 571.12 1498.16 571.12C1473.93 571.12 1460.13 566.213 1456.76 556.4L1455.84 557.32L1380.86 356.76L1352.34 472.68C1346.82 493.84 1340.84 517.76 1334.4 544.44C1332.25 553.333 1328.88 559.313 1324.28 562.38C1319.99 565.447 1311.71 566.98 1299.44 566.98C1289.93 566.98 1282.88 565.293 1278.28 561.92C1273.99 558.853 1271.84 553.487 1271.84 545.82C1271.84 542.447 1272.3 539.227 1273.22 536.16L1336.24 287.3C1339.61 273.807 1343.14 264.913 1346.82 260.62C1350.81 256.02 1357.86 253.72 1367.98 253.72C1376.26 253.72 1383.62 254.64 1390.06 256.48C1396.5 258.32 1399.87 261.08 1400.18 264.76V266.14L1474.24 471.3C1494.17 375.007 1506.9 318.427 1512.42 301.56C1516.71 288.68 1522.54 277.947 1529.9 269.36C1537.26 260.773 1545.39 255.56 1554.28 253.72Z" fill="white"/>
</svg>
